<?xml version="1.0" encoding="utf-8"?>
<svg width="1500" height="2100" viewBox="0 0 1500 2100" version="1.1" style="fill-rule:evenodd;clip-rule:evenodd;stroke-linejoin:round;stroke-miterlimit:2;" xmlns="http://www.w3.org/2000/svg">
  <path d="M 89 114.554 C 78.397 127.094 72 143.306 72 161 C 72 200.738 104.262 233 144 233 L 1394 233 C 1408 222.016 1421.52 194.052 1422 161 C 1421.52 127.948 1408 99.984 1394 89 L 144 89 C 121.957 89 102.215 98.927 89 114.554 Z M 182.244 222 C 202.516 209.256 216 186.691 216 161 C 216 135.309 202.516 112.744 182.244 100 L 1388 100 C 1389.29 100 1390.51 100.626 1391.26 101.68 C 1405.33 121.453 1410.29 141.227 1410.29 161 C 1410.29 180.773 1405.33 200.547 1391.26 220.32 C 1390.51 221.374 1389.29 222 1388 222 L 182.244 222 Z M 144 222 C 177.667 222 205 194.667 205 161 C 205 127.333 177.667 100 144 100 C 110.333 100 83 127.333 83 161 C 83 194.667 110.333 222 144 222 Z" style="fill:rgb(0,123,67);" transform="matrix(-1, 0, 0, -1, 1494.000084, 321.999994)"/>
  <path d="M 100.578 1308.71 C 88.94 1295.33 78.99 1270.78 78.578 1242.5 C 79.059 1209.45 92.574 1181.48 106.578 1170.5 L 1394.578 1170.5 L 1394.908 1170.76 C 1408.788 1181.92 1422.098 1209.71 1422.578 1242.5 C 1422.168 1270.78 1412.218 1295.33 1400.578 1308.71 L 1400.578 1948.5 L 100.578 1948.5 L 100.578 1308.71 Z M 1389.578 1314.5 L 1389.578 1937.5 L 111.578 1937.5 L 111.578 1314.5 L 1389.578 1314.5 Z M 1388.818 1181.51 C 1390.018 1181.58 1391.138 1182.19 1391.838 1183.18 C 1405.908 1202.95 1410.868 1222.73 1410.868 1242.5 C 1410.868 1262.27 1405.908 1282.05 1391.838 1301.82 C 1391.088 1302.87 1389.868 1303.5 1388.578 1303.5 L 112.578 1303.5 C 111.284 1303.5 110.07 1302.87 109.319 1301.82 C 95.245 1282.05 90.292 1262.27 90.292 1242.5 C 90.292 1222.73 95.245 1202.95 109.319 1183.18 C 110.07 1182.13 111.284 1181.5 112.578 1181.5 L 1388.578 1181.5 L 1388.818 1181.51 Z" style="fill:rgb(0,123,67);"/>
</svg>